<svg version="1" xmlns="http://www.w3.org/2000/svg" width="1365.333" height="1365.333" viewBox="0 0 1024.000000 1024.000000"><path d="M0 445.4v445.4l2.3 1.5 2.2 1.6H2.3L0 894v130h1024V0H0v445.4zm549-400c21.3 2.9 39.1 8.7 55.6 18.2 4.3 2.6 9.1 5.3 10.7 6.1 1.5.8 2.7 1.8 2.7 2.2 0 .4 2 1.9 4.4 3.5 5.2 3.3 20.4 18.7 26.7 27.1 19.3 25.7 28.9 54.9 28.9 88 0 20.9-3.5 39.6-10.6 56-1.9 4.5-3.4 8.4-3.4 8.7 0 1.7-15.4 25.6-17.4 27-.6.4-.8.8-.5.8 1.1 0-10.7 12.3-17.1 17.8-3.6 3.1-6.4 6-6.2 6.5.1.4-.2.6-.8.2-.5-.3-1-.1-1 .6s-.3 1-.6.6c-.4-.3-3 1.2-6 3.3-10.1 7.5-27.8 15.7-44.4 20.5-19 5.5-48.9 5.9-73.5 1-3.4-.6-14.4-4.5-19.8-6.9-2.9-1.2-5.8-2.1-6.6-1.8-.9.3-1.1 0-.6-.8.6-1 .4-1.2-.8-.7-.9.3-1.7.3-1.9-.1-.7-1.6-7.8-5.3-8.9-4.6-.8.4-.9.3-.5-.4s.3-1.2-.3-1.2c-.5 0-3-1.5-5.4-3.4-2.5-1.9-4.8-3.2-5.1-2.9-.3.4-.6.1-.6-.5 0-.7-.7-1.2-1.5-1.2s-1.5-.4-1.5-.9c0-1.3-15.4-13.6-16.5-13.3-.5.2-.7 0-.3-.4.4-.4-1.6-3.5-4.6-6.8-5.6-6.5-17.6-23.7-17.6-25.4 0-.6-.3-1.2-.8-1.4-2.4-1-12.5-28.1-14.8-39.8-2.3-11-3.2-38.5-1.6-49.5 1.3-10 5.1-25.2 8.2-33.3 8.5-22.3 27.4-48.2 44.8-61.4 3.1-2.4 5.9-4.6 6-5.1.2-.4.8-.7 1.3-.7s3-1.5 5.6-3.4c9.4-6.6 27.8-14.8 40.8-18.1 3.9-.9 7.7-2 8.5-2.2.8-.3 3.4-.8 5.6-1 2.3-.2 5.3-.7 6.8-1.1 5.1-1.4 23.3-1.3 34.6.2zm453 84c-.7 2-.5 2.7 1.3 3.9 2.2 1.5 2.2 1.5-.6 1-2.3-.5-2.9-.1-3.4 1.6-.7 2.7-2.3 2.7-2.3 0 0-1.8-.4-2-2.7-1.5-2.7.6-2.7.6-.8-.9 1.2-1 1.9-2.5 1.7-3.8-.3-1.8-.2-1.9 1.2-.8 1.3 1.1 2 1.1 3.8-.2 1.3-.9 2.4-1.6 2.5-1.6.1-.1-.2 1-.7 2.3zm18.3 29.6h3.2l-2.4 1.9c-2 1.5-2.2 2.1-1.2 3.9 1.6 3 1.4 3.2-1.8 1.9-2.5-.9-3.3-.8-4.9.6-2.7 2.4-3.3 2.1-2.1-1 .9-2.5.7-3-1.8-5l-2.8-2.3h3.8c3.2 0 3.7-.3 3.7-2.3 0-3.7 1.4-4.1 2.3-.8.6 2.6 1.2 3.1 4 3.1zM32.8 214.4l3.7-.7-2.4 2.6c-2 2.2-2.2 3-1.3 5.6 1.2 3.5 1 3.7-2.2 1.6-2.1-1.4-2.4-1.3-4.1.5-2.3 2.5-3.7 1.7-2.5-1.6.8-2.1.6-2.6-1.5-3.6-3.2-1.4-3.2-2.8-.1-2.8 1.8 0 2.5-.7 3-3.3l.7-3.2 1.5 2.8c1.4 2.5 1.9 2.7 5.2 2.1zm61.5 25.1c-.4 2.8-.2 3.5 1.1 3.5 2.3 0 2 1.7-.4 2.3-1.4.4-2 1.4-2 3.3 0 2.7-.1 2.7-1.7 1.1-1.6-1.6-1.8-1.5-4.1.6l-2.4 2.2.7-3.3c.5-2.5.3-3.2-.9-3.2-2.3 0-2-1.7.4-2.5 1.6-.5 1.9-1.2 1.4-3.2-.6-2.3-.5-2.4 1.5-1.2 1.8 1.2 2.4 1.1 4.3-.9 1.2-1.2 2.3-2.2 2.5-2.2.1 0-.1 1.6-.4 3.5zm-73.5 27.9c3.7-.2 4 .6 1.2 3.1-1.8 1.6-1.8 2-.5 4.6 2.1 4 1.9 4.2-1.5 2.3-2.7-1.7-3-1.7-4.8-.1-2.6 2.4-3.2 2.1-2.6-1.2.5-2.5.2-3.2-2.2-4.5l-2.9-1.5 3.3-.1c2.8 0 3.2-.3 3.2-2.8 0-3.8 1.1-4.7 2.5-1.9.8 1.6 1.9 2.2 4.3 2.1zM53 318.3c0 .5 1.6.7 3.5.5 4.1-.5 4.2-.2 1.4 2.8-1.7 1.8-1.9 2.6-1 4.2 1.8 3.4 1.3 4.4-1.4 2.6-2.4-1.5-2.7-1.5-4.4 0-2.5 2.3-3.1 2-2.5-1.4.6-2.6.3-3.1-2.2-4.1l-2.9-1.2 3-.6c2.6-.5 3-1.1 3.3-4.1.3-3.3.4-3.4 1.8-1.6.8 1.1 1.4 2.4 1.4 2.9zm699.2 67.9c2 .7 3.4.5 5.9-.7 3.1-1.7 3.2-1.7 2.6.5-.7 2.8.6 6.3 3.3 9 1.2 1.2 2 2.3 1.8 2.5-.2.2-2.5-.2-5.1-.8-3.7-.8-5.3-.8-6.8.1-1.7 1.1-1.9.9-1.9-1.4 0-1.4-1.4-4.6-3.2-7.1-2.5-3.7-2.8-4.5-1.2-3.9 1 .5 3.1 1.2 4.6 1.8zM346.8 395c.9 1.5 1.9 1.9 3.7 1.4 2.9-.7 3.3.3.8 2.2-1.6 1.1-1.6 1.7-.6 4.4l1.2 3.2-2.5-1.7c-2.4-1.6-2.7-1.5-4.6.2-2.1 1.8-2.1 1.8-1.4-.9.5-2.3.2-3-2.1-4.2l-2.8-1.5 2.8-.1c2.5 0 3.3-1.2 2.8-4.3-.2-1.4 1.4-.7 2.7 1.3zm397.2.9c0 .5.3 1.6.6 2.5.5 1.2 0 1.6-1.9 1.6-1.8 0-2.6-.6-2.9-2.5-.4-2.1-.1-2.5 1.8-2.5 1.3 0 2.4.4 2.4.9zm159.1 8.1c3.6 0 3.8 1.3.4 2.8-1.9.9-2.5 1.9-2.5 4.4v3.1l-2.5-2.3c-2.2-2-2.8-2.2-5.1-1.1-3.5 1.6-3.9 1-1.3-2.3l2.2-2.7-2.2-1.5c-2.8-2-1.8-3.6 1.4-2.4 2.1.8 2.7.5 4.2-1.8l1.8-2.6.3 3.2c.3 2.8.7 3.2 3.3 3.2zm-106.8 16.2c7.5.8 11.3.9 12.5.2 2.2-1.4 12.6-1.2 14.3.3.8.6 2.7 1.1 4.3 1.1 5.3-.1 5.6 1.5 5.6 25.2 0 27.7 1 26-15.2 26h-12.1l.8 23.7c.8 26.1.8 27.4-.1 35.1-.5 4.1-.2 6 1.4 9.1 1.2 2.1 1.9 4.1 1.6 4.3-1.1 1.1-2.7 14.8-3.3 28.1-.5 11.5-.9 15-2.1 15.7-1.8 1.1-46 1.3-47.6.2-.6-.4-2.3-3.3-3.7-6.4-2.7-5.7-2.7-5.9-1.7-17.5 1.8-22.4 1.8-24.4.1-24.1-1.1.3-1.6 1.4-1.5 3.6.2 3.7-1 4.2-2.6 1.1-.7-1.1-1.7-1.9-2.3-1.6-.7.2-2.3.8-3.6 1.2l-2.4.7 2.2-2.7 2.1-2.8-2.2-2.4c-2.4-2.6-2.1-2.8 1.7-1.3 2.3.9 2.7.7 3.8-1.7l1.2-2.7.5 2.9c.3 1.8 1.2 3.1 2.3 3.3 1.6.3 1.7.1.8-1.6-1.7-3.2-1.3-12.7 1-26.2 1.2-7.2 1.8-14 1.5-16.4-1.1-7.3-1.3-17-.5-19.4l.9-2.2h-12c-16 0-15 1.7-15-26 0-15.7.3-22.1 1.3-23.3 1.8-2.5 7.3-3.1 25.2-2.8 9.7.1 16.6-.2 17.5-.8 2-1.4 12-1.4 25.3.1zm-524.5 3c.9.9 1.2 8.1 1.3 25.7l.1 24.6 6.2-24.6c3.5-13.5 6.6-25.1 7-25.7.5-.9 7.1-1.2 23.1-1.2 21.2 0 22.5.1 23.5 1.9.6 1.2 1.1 13.5 1.3 30.8.3 18.8 1 33.1 2 41.3 1.8 13.7 2.2 26.4 1.2 35.3-.6 4.8-.3 6.3 1.5 9.3 1.7 3.1 1.9 4.2 1 6.7-.5 1.6-1 4.2-1 5.8 0 1.5-.7 3.5-1.5 4.3-2 2-3.5 10.9-3.5 21.3 0 11.8.9 11.3-22.9 11.3-16.6 0-20.1-.3-21.1-1.5s-1.3-8.1-1.2-28.6c.1-23.9-.5-30.9-2.1-23.7-1 5.1-10 38.7-11.8 44.7-1.1 3.6-2.4 7-3 7.8-.9 1-5.7 1.3-20.8 1.3-10.8 0-20.1-.4-20.6-.8-.6-.4-2.4-2.9-3.9-5.6-2.9-4.9-2.9-5-2.1-17 .4-6.7.6-14.1.6-16.7-.1-2.5.2-5.6.7-6.8.6-1.7.3-3.4-1-5.9-2.3-4.6-1.9-13.6 1.3-30.2 1.9-9.7 2.1-12.6 1.2-15.3-.7-1.8-.9-6.6-.7-11.2.5-7.5.6-13.6.3-28.8-.1-9.3 1.2-26 2.3-28 .8-1.5 2.9-1.7 21.1-1.7 14.5 0 20.6.3 21.5 1.2zm141.6.1c1.6 1.2 1.7 4 1.8 34.7 0 18.4.6 40.5 1.3 49 .7 8.9.8 16.2.4 17.2-1.7 3.2-1.1 12.6.9 14.6 2.7 2.7 3.1 4.5 1.6 7.3-.7 1.3-1.3 3.5-1.4 4.9 0 1.4-.7 3.7-1.4 5.2-1.1 2-1.5 6.6-1.5 16.9 0 9.3-.4 14.5-1.2 15.5-.9 1.1-5.4 1.4-23.8 1.4-12.4 0-23.2-.4-23.8-.8-1.9-1.2-3.6-9.7-3.6-17.7 0-13.4.8-29 1.6-30.2.5-.7 0-2.9-1-5-1.9-4.1-2-14.5-.3-24.3.6-3 1.1-23.8 1.3-46.1.2-32.7.5-40.9 1.6-42.2 1.2-1.5 4.1-1.7 23.5-1.7 16.5 0 22.7.3 24 1.3zm134.4 5l6.2 6.3-.1 19.6c0 13.3-.4 20.1-1.2 21.2-1 1.3-4.8 1.6-22 1.9-22.9.5-23.7.3-23.7-5.4 0-1.6-.3-2.9-.7-3-.5 0-1.5-.2-2.4-.4-4.1-.8-4.1-1.6-4 50.7l.1 23.8h11v-4c0-3.5-.3-4-2.3-4-1.3 0-3.1-.6-4.1-1.3-1.7-1.2-1.9-2.9-1.7-16.7.1-9.2.6-15.9 1.3-16.7 1.3-1.6 45.4-1.9 47.8-.3 1.3.8 1.5 6.5 1.8 39.2l.3 38.2-6.3 6.3-6.3 6.3h-41.8l-41.8-.1-3.8-3.4c-2-1.9-5-5.9-6.5-8.9-2.7-5.3-2.8-5.8-2-15.3.5-5.4.7-12.6.6-16.1-.1-3.5.2-7.1.7-8 .6-1.1.4-2.9-.5-5.1-2-4.7-1.7-16.8.5-28.8 1.1-5.7 1.7-12 1.4-14-.8-5.7-.8-20.2.1-25.6.5-3 .3-7.2-.4-11-.9-4.7-1-7.9-.2-13.1 1.1-6.6 1.4-7.3 6.9-12.8l5.7-5.8h81.2l6.2 6.3zm86-5.4c1 .6 1.3 3.9 1.3 12.7 0 6.5 0 15.5.2 19.9.1 4.4.2 12.6.2 18.3V484H650v-29.1c0-18.1.4-29.8 1-31 1-1.8 2.3-1.9 22-1.9 18.9 0 21 .2 21.8 1.7.4 1 .9 13.9 1.1 28.8.1 14.8.7 31 1.3 36 .6 4.9 1.2 18.2 1.2 29.5.1 14.7.5 21.2 1.4 22.8.8 1.3 1.1 3.5.8 5-.3 1.5-.8 4.7-1.1 7.2-.3 2.4-1.1 4.8-1.8 5.2-.8.5-1.4 5.4-1.7 15.3-.4 11.5-.8 14.8-2 15.5-2 1.3-40 1.3-42 0-1-.6-1.5-2.7-1.5-6.7-.1-3.2-.2-15.9-.3-28.3l-.2-22.5h-7.1l-7.1.1-.1 27.5c-.2 21.9-.5 27.9-1.6 29.3-1.2 1.4-3.8 1.6-22.5 1.4l-21.1-.3-2.4-5c-1.3-2.8-2.4-6.4-2.4-8 .1-10.9 1.2-34.5 1.7-35.3.3-.6-.1-2.9-.9-5.2-2-5.6-1.9-9.4.5-28.3 1.4-10.8 1.8-16.9 1.2-19.5-.5-2-.7-7.3-.5-11.7.6-9.5.6-18.8.2-27-.4-7.9 1.1-24.7 2.4-26.3 1.1-1.4 41.3-1.8 43.5-.3zm115.4 78.6c2.2-.7 2.3-.7.3.8-1.7 1.4-1.8 1.9-.7 3.7 1.6 2.6.9 3.8-1.2 2.1-1.2-1-1.7-.7-3 1.6l-1.5 2.8-.1-3.3c0-2.3-.5-3.2-1.7-3.3-1.4 0-1.3-.3.5-1.1 1.8-.9 2.2-1.7 1.7-3.7-.6-2.5-.6-2.5 1.4-.7 1.3 1.2 2.7 1.6 4.3 1.1zm223.8.5c1.1 2.1 1.9 2.1 7 .2.9-.4.6.4-.8 2.3l-2.2 2.8 2.2 2.4c2.4 2.6 2.1 2.8-1.7 1.3-2.3-.9-2.7-.7-3.8 1.7l-1.2 2.7-.5-2.9c-.4-2.3-1.2-3.1-3.5-3.6l-3-.6 2.9-1.2c2.5-1 2.8-1.5 2.2-4.1-.6-3.4.8-4 2.4-1zm-29 33.6c3.4-.6 3.7-.1 1.3 2.6-1.7 1.9-1.6 2 .7 3.8 2.9 2.2 2.3 3.4-1.1 2.1-2-.7-2.8-.4-4.6 1.8l-2.2 2.6-.1-3.3c0-2.7-.4-3.2-2.5-3.2-3 0-3.3-1.6-.5-2.5 1.5-.5 2-1.5 2-4.3l.1-3.7 1.9 2.4c1.6 1.8 2.6 2.2 5 1.7zm34.8 6.5c1.3 0 1.1.3-.6 1.2-1.6.7-2.2 1.7-1.9 2.9.6 2-.8 2.5-1.9.7-.3-.6-1.8-.8-3.3-.5-2.5.6-2.5.6-.6-.9 1.6-1.3 1.8-1.9.7-3.5-1.7-2.8-1.5-3.2.8-2 1.7.9 2.2.7 3.3-1.7l1.2-2.8.3 3.3c.2 2.2.9 3.2 2 3.3zm-345.7 87.4l3.4-.7-2.6 2.8c-2 2.2-2.5 3.4-1.9 4.9 1.4 3.4 1.1 3.8-1.7 2-2.6-1.8-2.7-1.7-4.1.3-2.1 3.2-3.2 2.7-2.5-1.2.4-2.9.2-3.5-1.7-4.1-2-.6-2-1.8.1-2.1.5-.1 1.4-.2 1.9-.3.6 0 1-1.6 1-3.4v-3.2l2.3 2.9c2 2.5 2.7 2.8 5.8 2.1zm193.3 7.5c3.7-1.4 4.1-.9 1.6 2.2-1.9 2.5-1.9 2.6 0 4.3 2.5 2.3 1.6 3.7-1.5 2.5-2-.8-2.7-.5-4.4 1.8l-2 2.7-.1-3.3c0-2.9-.3-3.2-3-3.2-3.6 0-4-1.7-.5-2.6 2.1-.5 2.5-1.2 2.5-4.6v-3.9l2.3 2.6c2 2.3 2.5 2.5 5.1 1.5zm153.8 13.5c.4 2 .1 2.5-1.6 2.5-1.3 0-2.6-1-3.3-2.5-1-2.3-.9-2.5 1.7-2.5 2.2 0 2.9.5 3.2 2.5zm-18.5 1.2c2 .3 3.9.1 4.8-.7 1.3-1.1 1.5-.9 1.5 1.2 0 1.3 1.3 4.5 3 7.1 1.8 2.9 2.5 4.7 1.7 4.7-.7 0-1.8-.5-2.4-1.1-1.4-1.4-6.4-1.5-9-.1-2 1.1-2.1.9-2-2.3.1-2.5-.7-4.3-2.6-6.3-3.3-3.4-3.4-4.6-.4-3.8 1.2.4 3.7.9 5.4 1.3zm-443 4.5c-1.6 6.5-1.8 9.6-.8 10.2 1.9 1.2 1.2 2.6-1.4 2.6-1.3 0-4 1.4-6 3.1-3.8 3.4-5.4 3.4-3.6.1 1.5-2.9 1.4-6.9-.4-9.5-1.4-2.2-1.4-2.3 2.1-2.3 2.9 0 4.2-.7 6.3-3.1 3.1-3.7 4.5-4.1 3.8-1.1zm143.8 2.9c.6 1.8 1.3 2 4.2 1.6l3.6-.6-2.3 2.4c-2 2.1-2.2 2.8-1.2 5 1.7 3.6 1.5 3.8-1.3 1.9-2.4-1.6-2.7-1.6-4.5.1-1.9 1.8-2 1.7-2-1.2 0-2.1-.7-3.3-2.2-4.1-2.3-1-2.3-1.1.5-1.1 2.3-.1 2.7-.5 2.7-3.1 0-3.5 1.5-4 2.5-.9zm-34.3 5.1c1.9-1.9 3-1.4 1.8.8-.9 1.7-.7 2.2 1.2 3 2.3.9 2.3.9.1.9-1.3.1-2.4 1-2.9 2.3-.7 2.3-.7 2.3-1.6.2-.7-1.6-1.6-2-3.6-1.6-2.6.5-2.7.4-.9-1.5 1-1.2 1.5-2.7 1.1-3.8-.6-1.5-.5-1.6 1.4-.4 1.7 1.1 2.4 1.1 3.4.1zM555.3 678h33.2l10.6 10.8c10.6 10.8 10.6 10.8 11.3 16.7 1.1 9.9.8 42.6-.5 48.5-1.3 6.3-1.4 7.7-.4 10.7.6 1.8 0 2.9-2.4 5-1.7 1.5-3.1 3.1-3.1 3.6s-1.4 2-3 3.4c-5.1 4.2-5.2 5.1-2.9 18 1.2 6.5 2.3 12.5 2.4 13.3.1.8.5 2.6.8 4 1.7 7.6 3.9 18.4 5.1 24.8 2 10.6 2.8 10.2-22.3 10.2-16.1 0-21.1-.3-22-1.3-1.7-2.1-5.3-18.5-5.6-25.3-.1-3.3-.7-6.9-1.3-8-.9-1.4-1.1 2-1.2 14.5 0 15.8.1 16.4 1.8 14.8 2.7-2.5 3.2-2.1 2 1.4-1 2.8-.8 3.3 1.8 5.5l2.9 2.3-3.7.1c-3.4 0-3.8.3-3.8 2.5 0 3.2-1.8 3.2-2.6 0-.5-2.1-1.2-2.5-4.3-2.5h-3.6l3-2 3-2H546c-2.5-.1-12.7 0-22.6 0-20.1.1-21.4-.3-21.4-6 0-1.6-.9-4.8-2.1-7-1.9-3.6-2-4.9-1.3-13.3.4-5 .7-12.6.6-16.7-.1-4.1.2-8.1.7-8.9.5-.8.3-2.7-.5-4.7-1.6-3.9-1.9-17-.4-17.9.6-.4.8-1.5.5-2.6-.4-1.1.1-6.5 1.1-12 1.4-7.9 1.5-10.7.6-13.2-.7-2-.9-6.5-.5-11.7.3-4.7.4-11.4.2-15-.5-9.6-.3-16.4.6-26.9 1-11.8 2-13.1 10.5-13.1 3.3 0 6-.4 6-.9 0-1.5 3.5-1.8 3.8-.4.3 1 7.4 1.3 33.5 1.3zm-266-.8c7.5.8 11.3.9 12.5.2 2-1.2 12.1-1.2 14 0 .7.4 2.7.9 4.5 1.2 5.5.7 5.7 1.7 5.7 25.4 0 27.7 1 26-15.2 26h-12.1l.8 24.2c.9 28 .9 27.5.2 35-.3 4.5 0 6.6 1.5 9.3 1 2 1.6 4.1 1.2 4.6-1.3 2.2-2.6 13.1-3.3 27.2-.5 11.5-.9 15-2.1 15.7-1.8 1.1-46 1.3-47.6.2-.6-.4-2.3-3.3-3.8-6.4-2.6-5.7-2.6-5.9-1.7-17 1.8-20.3 1.9-25.4.5-27.9-1.9-3.5-1.7-13 .7-26.9 1.2-7.2 1.8-14 1.5-16.4-1.1-7.3-1.3-17-.5-19.4l.9-2.2h-12c-16 0-15 1.7-15-26 0-15.7.3-22.1 1.3-23.3 1.8-2.5 7.3-3.1 25.2-2.8 9.7.1 16.6-.2 17.5-.8 2-1.4 12-1.4 25.3.1zm170.9 7.6l6.8 6.9v25.9c0 16.3.6 31.3 1.5 40.4 1.1 9.6 1.3 18 .9 25.1-.6 9.2-.4 10.9 1.1 13.3 1.5 2.3 1.6 3.3.6 6.5-.6 2.1-1.1 5.3-1.1 7 0 1.9-.6 3.4-1.5 3.7-1.2.5-1.5 2.7-1.5 10.8v10.2l-6.2 6.1-6.3 6.2-42.3.1h-42.3l-5-4.7c-8-7.5-8.3-8.5-7-22.9.7-6.7.9-13.4.5-14.8-.3-1.4-.1-4 .5-5.7.8-2.4.7-3.7-.4-5.9-2.1-4.1-1.9-15.2.7-29.8 1.7-9.7 1.9-13.1 1-15.5-1-3.1-.9-11.7.4-24.1.4-3.7.1-7.4-.7-9.8-1-3.1-1-5.7 0-13.8 1.2-9.1 1.7-10.4 5.3-15.2 2.1-2.9 4.7-5.6 5.6-6 .9-.4 19.9-.7 42.1-.7l40.4-.1 6.9 6.8zm-272.4-4.7c2.2.8 2.2.9 2.2 23.6 0 12.6-.5 23.5-1 24.3-.8 1.3-5.1 1.5-27 1.8l-26 .3v8.8l25.9.3c14.3.2 26.3.7 26.8 1.1.4.5 1.1 17.1 1.4 37 .4 19.9 1 42 1.4 49.2.7 11.9.6 13.3-1.2 16.5l-2 3.5-22.9.3c-12.6.2-35.6 0-51.1-.3-27.7-.7-28.3-.8-28.9-2.9-.4-1.1-1.7-3.1-3-4.3-1.5-1.3-2.4-3.3-2.4-5 .1-5.3 5.6-36.3 6.7-37.4.7-.7 10.4-1.1 26.4-1.2l25.4-.2v-9l-26.3-.3-26.3-.2-1.9-4.3c-1-2.3-2.3-7.4-3-11.2-1.1-6-1-8.2.4-14.8 1.3-6.7 1.4-8.2.2-10.5-.8-1.6-1.3-6-1.3-10.5-.1-6.6.3-8.3 2.3-11.3 3-4.4 3-5.4-.1-10-1.7-2.5-2.5-5-2.5-7.9 0-2.4 1.1-8.2 2.5-12.9 1.4-4.7 2.5-9.2 2.5-9.9 0-3.6 1.3-3.7 51.5-3.6 26.9 0 50 .5 51.3 1zm503.6.2c1.7 1.2 1.8 3.7 1.8 34.3 0 18.1.6 40.1 1.3 48.9.7 9.2.9 16.7.4 17.7-.5.9-.9 4.2-.9 7.2 0 4.3.5 6.1 2.1 7.7 2.3 2.3 2.6 4.1 1.1 8.4-4.1 12.2-4.3 13.8-4.1 26.5.2 9.4-.1 13.3-1.1 14.4-1.1 1.4-4.6 1.6-23.9 1.6-12.4 0-23.2-.4-23.9-.8-.7-.5-1.6-2.6-1.9-4.8-.3-2.1-1.1-5.1-1.8-6.6-.8-2.1-.8-5.4.1-13.5.7-6 1.1-12.9.7-15.4-.3-2.7 0-5.5.6-6.7.9-1.8.8-3.1-.9-6.7-2.2-4.8-2.2-11.3 0-23.5.6-3 1.1-23.8 1.3-46.1.2-32.7.5-40.9 1.6-42.2 1.2-1.5 4.1-1.7 23.5-1.7 16.8 0 22.7.3 24 1.3zm141.9.7c1.4 1.2 1 46-.4 47.6-.9 1.1-6.2 1.4-26.5 1.4-14 0-25.4.3-25.5.7 0 .5-.2 3.1-.4 6l-.4 5.2 24 .3c20 .3 24.1.5 24.9 1.8.5.8 1 8.5 1 17s-.5 16.2-1 17c-.8 1.3-4.9 1.5-24.8 1.8l-23.9.3v4.1c0 2.8-.6 4.5-1.8 5.4-1.6 1.2-1.6 1.4-.3 1.9.9.4 1.8 1.4 2.1 2.4.4 1.7 2.3 1.8 26.1 1.8 14.2 0 26.2.5 26.6.9 1.5 1.5 1.4 47.2-.1 49-1 1.2-8.9 1.4-51 1.4-43.9 0-49.9-.2-51.3-1.6-.9-.8-1.6-1.9-1.6-2.4s-1.2-2.6-2.6-4.7c-2.5-3.7-2.6-4-1.8-14.3.5-5.8.7-13.3.6-16.7-.2-3.4.2-7.2.8-8.3.8-1.5.7-2.7-.5-4.9-2.1-4.1-1.9-11.9.6-29.4 1.6-10.8 1.9-15.5 1.1-17-1.5-3.2-1.2-15.7.4-18.9 1.8-3.5 1.7-9.6-.1-12.8-1.9-3.2-1.9-9.1 0-16 .8-3 1.5-8 1.5-11 0-3.5.6-6.4 1.6-7.9l1.7-2.3 50.1.7c27.6.4 50.5 1.1 50.9 1.5zm138.5-.9c2.2.8 2.2.9 2.2 23.6 0 12.6-.5 23.5-1 24.3-.8 1.3-5.1 1.5-27 1.8l-26 .3v8.8l25.9.3c14.3.2 26.3.7 26.8 1.1.4.5 1.1 17.1 1.4 37 .4 19.9 1 42 1.4 49.2.7 11.9.6 13.3-1.2 16.5l-2 3.5-22.9.3c-12.6.2-35.6 0-51.1-.3-27.7-.7-28.3-.8-28.9-2.9-.4-1.1-1.7-3.1-3-4.3-1.5-1.3-2.4-3.3-2.4-5 .1-5.3 5.6-36.3 6.7-37.4.7-.7 10.4-1.1 26.4-1.2l25.4-.2v-9l-26.3-.3-26.3-.2-1.9-4.3c-1-2.3-2.3-7.4-3-11.2-1.1-6-1-8.2.4-14.8 1.3-6.7 1.4-8.2.2-10.5-.8-1.6-1.3-6-1.3-10.5-.1-6.6.3-8.3 2.3-11.3 3-4.4 3-5.4-.1-10-1.7-2.5-2.5-5-2.5-7.9 0-2.4 1.1-8.2 2.5-12.9 1.4-4.7 2.5-9.2 2.5-9.9 0-3.6 1.3-3.7 51.5-3.6 26.9 0 50 .5 51.3 1zM47.9 825.5c2.5-.6 2.5-.6.7 1.4-1.6 1.8-1.7 2.5-.7 4.7 1.1 2.5 1.1 2.6-1.4 2-2.3-.6-2.5-.4-2.5 2.6 0 3.4-1.5 2.9-2.2-.7-.3-1.5-1-1.9-2.8-1.6l-2.5.3 2-2.2 2-2.2-2.4-1.9-2.3-1.9h3.1c2.6 0 3.1-.4 3.1-2.3 0-3.8 1.4-4.2 2.4-.7.8 2.7 1.3 3.1 3.5 2.5zm661 56.2c-.9 2.5-.7 3 1.8 5l2.8 2.3h-3.7c-3.4 0-3.8.3-3.8 2.4 0 3.6-1.7 4-2.4.6-.5-2.6-1-3-3.7-3h-3.1l2.2-1.8c1.9-1.5 2.1-2.2 1.1-4-1.6-3-1.4-3.2 1.8-1.9 2.4.9 3.2.8 4.6-.6 2.5-2.5 3.6-2.1 2.4 1zM56 911.6c-1 2.6-.9 3.1 1.7 5.1l2.8 2.3h-3.7c-3.5 0-3.8.2-3.8 3 0 1.6-.4 3-.9 3s-1.2-1.4-1.6-3c-.6-2.6-1.1-3-3.8-3h-3.2l2.4-1.9c2.2-1.7 2.3-1.9.7-4.9l-1.6-3.1 2.9 1.6c2.7 1.6 3 1.6 5.7-.4 1.6-1.2 3-2 3.2-1.9.1.2-.2 1.6-.8 3.2zm667 .5c0 1.8.4 2 2.8 1.5 2.6-.6 2.6-.6.7.9-1.2 1-1.9 2.5-1.7 3.8.3 1.8.2 1.9-1.2.8-1.3-1.1-2-1.1-4.1.3-2.4 1.6-2.4 1.6-1.5-.8.7-2 .5-2.7-1.3-3.9-2.2-1.5-2.2-1.5.6-1 2.3.5 2.9.1 3.4-1.6.7-2.7 2.3-2.7 2.3 0zm-98.9 52.6c.8 2.5 2.3 5.1 3.4 5.7 1.1.6 2.2 1.2 2.4 1.3.2.2-.8 1.2-2.2 2.3-1.5 1.2-3.2 3.9-3.8 6.1-1.4 4.4-2.9 5.2-2.9 1.3 0-3.8-1.8-6.4-5.3-7.9-2.9-1.2-3-1.4-1.2-2.1 3.6-1.3 5.5-3.7 6.1-7.6.4-2.1 1-3.8 1.4-3.8.3 0 1.3 2.1 2.1 4.7zm13.8 14.3c.4.3 0 1.8-1.1 3.5-1.8 2.9-1.8 2.9-2.4.7-.4-1.2-1-2.2-1.4-2.2-.4 0 0-1.5.9-3.4 1.5-3.1 1.7-3.2 2.4-1.2.4 1.1 1.2 2.3 1.6 2.6z"/><path d="M771.3 423.3c-1.6.9-6.3 1-17.5.6-8.4-.4-16.1-.3-17 .2-.9.5-2.6.9-3.7.9-1.7 0-2.1.6-2.1 3.2 0 1.8-.1 11.2-.3 20.8-.2 9.6-.1 18.3.1 19.2.4 1.6 1.9 1.8 13.3 1.8 14.2 0 14.3.1 11.9 6.6-.7 1.9-.7 3 .1 4 .8 1 .8 2.2 0 4.5-.7 2.1-.7 3.7-.1 4.9.6 1 1 4.1 1 6.9 0 3.3.4 5.1 1.2 5.1.7 0 .5.5-.5 1.2-2.6 2.1-5.9 27.6-4.1 32.2.3.9 1 1.4 1.4 1.1.5-.3 1.2 0 1.6.6.4.8.3.9-.4.5-1.5-.9-1.5-.1 0 2.4 1 1.5 1 2.2 0 3.2-.7.7-1.2 4.3-1.3 9.3 0 4.4-.4 11.6-.9 16-.7 7.4-.6 8.4 1.7 13.3l2.5 5.2 22.1-.2 22.2-.3.2-14.5c.2-18.3.2-17.2 1.2-16.6 1.6 1 2.2-11.1.6-14.1s-2.1-14.3-.7-15.8c.5-.6.5-5.5.1-11-.5-5.5-.9-17.7-1.1-27l-.2-17 13.2-.3c9.5-.2 13.2-.6 13.3-1.5 0-1.3 0-41.7-.1-43 0-.4-1.2-.7-2.7-.7-1.4 0-3.5-.8-4.5-1.7-1.5-1.3-2.1-1.4-2.7-.5-.5.9-1.5 1-3.8.1-2.5-.8-3.6-.7-5.5.5-2 1.3-3.5 1.3-12.8.1-12.9-1.8-22.8-1.8-25.7-.2zM740 459c0 .5-.4 1-1 1-.5 0-1-.5-1-1 0-.6.5-1 1-1 .6 0 1 .4 1 1zm-.6 5.1c-.4.6-1.1.6-2-.2-2.1-1.7-1.7-3.1.6-1.9 1.1.6 1.8 1.5 1.4 2.1zM736 467c0 .5-.7 1-1.5 1s-1.5-.5-1.5-1c0-.6.7-1 1.5-1s1.5.4 1.5 1zm51 37.4c0 .3-.4.8-1 1.1-.5.3-1 .1-1-.4 0-.6.5-1.1 1-1.1.6 0 1 .2 1 .4zm-18.5 4.6c.3.5-.1 1-.9 1s-1.8-.5-2.1-1c-.3-.6.1-1 .9-1s1.8.4 2.1 1zm17.5.4c0 .3-.4.8-1 1.1-.5.3-1 .1-1-.4 0-.6.5-1.1 1-1.1.6 0 1 .2 1 .4zm-1 9.6c0 .5-.5 1-1.1 1-.5 0-.7-.5-.4-1 .3-.6.8-1 1.1-1 .2 0 .4.4.4 1zm-18.2 4.8c.2.7-.2 1-1.2.6-.9-.3-1.6-1.1-1.6-1.6 0-1.3 2.3-.5 2.8 1zm17.2.2c0 .5-.4 1-1 1-.5 0-1-.5-1-1 0-.6.5-1 1-1 .6 0 1 .4 1 1zm-16.4 24.7c-1 1-1.9-.5-1-1.8.6-1.1.8-1.1 1.2 0 .2.7.1 1.5-.2 1.8zm-.2 2.9c.4 1.1.1 1.4-1.1 1.2-.9-.2-1.8-.9-2.1-1.6-.6-1.8 2.5-1.5 3.2.4zm-3.4 4.5c0 .5-.7.9-1.5.9-1.5 0-2-1.2-.9-2.3.8-.8 2.4.1 2.4 1.4zm2 5.9c0 .5-.4 1-1 1-.5 0-1-.5-1-1 0-.6.5-1 1-1 .6 0 1 .4 1 1zm-5 1c0 .5-.4 1-1 1-.5 0-1-.5-1-1 0-.6.5-1 1-1 .6 0 1 .4 1 1zm3.4 1.6c2 .8 2.1 2.4.2 2.4-.8 0-1.6-.7-2-1.5-.6-1.7-.4-1.8 1.8-.9zm-1.9 5.4c-.3.5-1 1-1.6 1-.5 0-.9-.5-.9-1 0-.6.7-1 1.6-1 .8 0 1.2.4.9 1zm-3.5 7.6c0 .8-.4 1.2-1 .9-.5-.3-1-1-1-1.6 0-.5.5-.9 1-.9.6 0 1 .7 1 1.6zM230.5 435.7c-.8 12.6-.8 18.4.1 27.2.4 4.2.2 7.8-.7 10.4-1 3-1 4.3-.1 5.7.8 1.4.9 2.7 0 5-.8 2.3-.7 3.8.1 5.6 1.6 3.5 1.4 7.4-.9 19.2-2.7 13.8-2.7 25.4 0 29.7 1.8 2.9 1.9 3.4.4 4.6-1.1.9-1.5 2.7-1.3 6.3.2 2.8 0 10.4-.5 16.9-.8 10.9-.7 12.1 1.1 14.5 1.1 1.5 2.2 3.5 2.6 4.4.6 1.6 2.5 1.8 19.6 1.8h19l2-6.8c5.9-20.2 8.9-33 7.8-34.1-.8-.8-.6-1.4.6-2.3 1.1-.9 3.4-7.7 6.5-19.8l4.7-18.5.3 40.8.2 40.7 19-.1c10.4 0 19.2-.4 19.4-.8.3-.3.6-6.4.8-13.4.1-7 .6-12.7 1-12.7.5 0 .8-1.1.8-2.5 0-1.5.6-2.5 1.4-2.5.8 0 1.3-.8 1.2-1.8-.2-.9.2-3.3.9-5.2 1-3 .9-3.9-.7-6.5-1.7-2.7-1.8-4.3-1.3-16.5.5-10.5.2-17.3-1.4-30.8-1.6-13.4-2.1-23.3-2.1-43.3V425h-41.8l-1.1 3.2c-2.7 8.5-14.1 56.3-13.7 57.3.2.7 0 1.7-.6 2.3-.6.6-1.6 3.4-2.3 6.4-1.2 4.6-1.3.6-1.4-32L270 425h-38.7l-.8 10.7zm34.5 26.7c0 .3-.4.8-1 1.1-.5.3-1 .1-1-.4 0-.6.5-1.1 1-1.1.6 0 1 .2 1 .4zM251 473c0 .5-.4 1-1 1-.5 0-1-.5-1-1 0-.6.5-1 1-1 .6 0 1 .4 1 1zm13 31c0 .5-.5 1-1.1 1-.5 0-.7-.5-.4-1 .3-.6.8-1 1.1-1 .2 0 .4.4.4 1zm1 4c0 .5-.6 1-1.4 1-.8 0-1.8-.5-2.1-1-.3-.6.3-1 1.4-1 1.2 0 2.1.4 2.1 1zm-1.6 5.1c-.3.5-1 .7-1.5.3-.5-.3-.7-1-.3-1.5.3-.5 1-.7 1.5-.3.5.3.7 1 .3 1.5zm.6 7c0 .5-.4.9-1 .9-.5 0-1-.7-1-1.6 0-.8.5-1.2 1-.9.6.3 1 1 1 1.6zm40.5 14.9c.3.5-.1 1-1 1s-1.3-.5-1-1c.3-.6.8-1 1-1 .2 0 .7.4 1 1zm3 11c-.3.5-.1 1 .6 1 1 0 1 .3.1 1.2-.6.6-1.5.9-1.8.5-.7-.7.2-3.7 1.1-3.7.4 0 .3.4 0 1zm10.5 21c0 .5-.4 1-1 1-.5 0-1-.5-1-1 0-.6.5-1 1-1 .6 0 1 .4 1 1zm.8 3.9c.3.8-.1 1.2-.9.9-.7-.2-1.5-1-1.7-1.7-.3-.8.1-1.2.9-.9.7.2 1.5 1 1.7 1.7zM317 575c0 .5-.4 1-1 1-.5 0-1-.5-1-1 0-.6.5-1 1-1 .6 0 1 .4 1 1zm4 4c0 .5-.5 1-1.1 1-.5 0-.7-.5-.4-1 .3-.6.8-1 1.1-1 .2 0 .4.4.4 1zm-4 3c0 .5-.4 1-1 1-.5 0-1-.5-1-1 0-.6.5-1 1-1 .6 0 1 .4 1 1zm5 1c0 .5-.4 1-.9 1-.6 0-1.3-.5-1.6-1-.3-.6.1-1 .9-1 .9 0 1.6.4 1.6 1zM367.8 427.3c-.2 1.2-.3 18.6-.1 38.7.1 28.4-.1 38.3-1.3 44.4-2 11.2-1.8 21.3.5 26.1 1.7 3.5 1.7 4.1.4 6.2-1.1 1.6-1.3 3.4-.8 5.9.3 2 .1 8.7-.6 14.9-1 9.5-1 11.9.2 14.7.8 1.8 1.4 4.4 1.4 5.8l.1 2.5 22.2.3 22.2.2v-16.4c0-13.9.2-16.5 1.6-17 .8-.3 1.3-1 .9-1.5-.3-.5.2-2.8 1.1-5 1.5-3.9 1.5-4.1-.5-6.7-2-2.6-2.2-3.8-2-17.3.1-8-.2-33.4-.6-56.4l-.7-41.8-21.8.1c-21.6.1-21.8.2-22.2 2.3zm4.5 1.3c.3.3.3 1.3 0 2.1-.5 1.2-.7 1.2-1.4.1-1.5-2.3-.4-4 1.4-2.2zm2.7 20c0 .8-.5 1.2-1 .9-.6-.4-.8-1.1-.5-1.6.9-1.4 1.5-1.1 1.5.7zm-4 77.8c0 .3-.4.8-1 1.1-.5.3-1 .1-1-.4 0-.6.5-1.1 1-1.1.6 0 1 .2 1 .4zm33 10c0 .3-.4.8-1 1.1-.5.3-1 .1-1-.4 0-.6.5-1.1 1-1.1.6 0 1 .2 1 .4zm-19.2 5.4c.2.7-.2 1-1.2.6-.9-.3-1.6-1.1-1.6-1.6 0-1.3 2.3-.5 2.8 1zM397 550c0 .5-.4 1-1 1-.5 0-1-.5-1-1 0-.6.5-1 1-1 .6 0 1 .4 1 1zm-13.3 4.5c0 .9-.9 1.5-2.1 1.5-2.1-.1-2.1-.1-.2-1.5 2.4-1.8 2.3-1.8 2.3 0zM407 568c0 .5-.5 1-1.1 1-.5 0-.7-.5-.4-1 .3-.6.8-1 1.1-1 .2 0 .4.4.4 1zm-34 1c0 .5-.2 1-.4 1-.3 0-.8-.5-1.1-1-.3-.6-.1-1 .4-1 .6 0 1.1.4 1.1 1zm10.6 11.7c-1 1-1.9-.5-1-1.8.6-1.1.8-1.1 1.2 0 .2.7.1 1.5-.2 1.8zm17.9-.7c.3.5.1 1-.4 1-.6 0-1.1-.5-1.1-1 0-.6.2-1 .4-1 .3 0 .8.4 1.1 1zm-29.5 4.1c0 .5-.4.9-1 .9-.5 0-1-.7-1-1.6 0-.8.5-1.2 1-.9.6.3 1 1 1 1.6zm11.8-.2c.3.8-.1 1.2-.9.9-.7-.2-1.5-1-1.7-1.7-.3-.8.1-1.2.9-.9.7.2 1.5 1 1.7 1.7zM456.8 429.7c-4.2 4.3-4.8 5.6-5.8 11.6-.9 5-.9 7.9-.1 11.2 1.4 5.6 1.4 11.4 0 17.1-.8 3.2-.9 4.8-.1 5.6.7.7.7 1.9 0 4-.8 2.1-.7 4.1.1 6.8.6 2 1.1 4.5 1.1 5.5 0 .9 1.1 2.6 2.5 3.7 2.1 1.6 2.4 2.3 1.3 3.5-1 1.3-1.4 1.3-2.5-.3-.7-1-1.5-1.6-1.7-1.3-.9 1-3.6 19.8-3.6 25.5 0 3.4.7 7.8 1.6 9.9 1.2 3.1 1.3 4.3.3 6.6-.6 1.7-.9 4.6-.5 6.8.3 2.1.1 8.7-.4 14.6-1 10.1-.9 11 1.1 15.2 1.2 2.4 3.7 6 5.7 7.9l3.5 3.4h10.4c9.6 0 10.3-.1 10.3-2 0-1.1.4-2 .8-2 .5 0 1.7.9 2.7 2 1.7 1.9 3.1 2 29.4 2h27.7l5.2-5.3 5.2-5.3v-34.1c0-18.7-.3-35.5-.6-37.2l-.6-3.1H506v14.5c0 15.8-.3 14.9 5.8 14.7 2.1-.1 2.2.3 2.2 7.3v7.5h-17l-.1-2.8c0-1.5 0-12.3.1-24.1.1-18.8-.1-21.6-1.6-23.2-1.6-1.7-1.6-1.9-.1-1.9 1 0 1.6-.7 1.5-1.8-.1-.9 0-7.6 0-14.7l.2-13 6.5.3 6.5.4v8.8l20.2-.2 20.3-.3.2-3c.2-1.7-.2-4.3-.9-5.8-.9-2.3-.8-3.1.2-3.7 1-.6.9-.9-.1-1.3s-1-.6-.1-.6c.9-.1 1.2-3.2 1.2-11.9v-11.8l-5.3-5.2-5.3-5.2h-79l-4.6 4.7zm47.7 13.3c.3.5.1 1-.4 1-.6 0-1.1-.5-1.1-1 0-.6.2-1 .4-1 .3 0 .8.4 1.1 1zm-25.2 6.6c2.6.8 2.2 4.4-.5 4.4-1.3 0-3.3.3-4.4.6-1.7.5-2.4 0-3.2-2.4-.6-1.7-.8-3.3-.4-3.7.6-.5 4.2-.1 8.5 1.1zM499 453c0 .5-.7 1-1.5 1s-1.5-.5-1.5-1c0-.6.7-1 1.5-1s1.5.4 1.5 1zm-36.2 16.1c-.2.6-.8 1-1.3 1s-1.1-.4-1.3-1c-.2-.6.4-1.1 1.3-1.1s1.5.5 1.3 1.1zm85.7-.1c.3.5.1 1-.4 1-.6 0-1.1-.5-1.1-1 0-.6.2-1 .4-1 .3 0 .8.4 1.1 1zm-54.3 30.5c0 .5-.5 1.1-1.1 1.3-.6.2-1.1-.4-1.1-1.3s.5-1.5 1.1-1.3c.6.2 1.1.8 1.1 1.3zm-2.4 6.7c-.6 1.8-2.8 2.1-2.8.4 0-.9.7-1.6 1.6-1.6.9 0 1.4.5 1.2 1.2zm21.2 20.2c0 .3-.4.8-1 1.1-.5.3-1 .1-1-.4 0-.6.5-1.1 1-1.1.6 0 1 .2 1 .4zm13.5 14.6c.3.5-.1 1-.9 1-.9 0-1.6-.5-1.6-1 0-.6.4-1 .9-1 .6 0 1.3.4 1.6 1zm17.5 10c0 .5-.4 1-1 1-.5 0-1-.5-1-1 0-.6.5-1 1-1 .6 0 1 .4 1 1zm-18.6 3.5c-.4.8-1.4 1.5-2.3 1.5-1.4-.1-1.3-.3.3-1.5 2.5-1.9 2.7-1.9 2 0zm-35.3 3.8c-1.3 1.3-2.6.3-1.6-1.2.3-.6 1.1-.8 1.7-.5.6.4.6 1-.1 1.7zm46.9 5.1c0 .3-.4.8-1 1.1-.5.3-1 .1-1-.4 0-.6.5-1.1 1-1.1.6 0 1 .2 1 .4zm12 4.6c0 .5-.4 1-1 1-.5 0-1-.5-1-1 0-.6.5-1 1-1 .6 0 1 .4 1 1zm-60 4.1c0 .5-.7.9-1.5.9-1.5 0-2-1.2-.9-2.3.8-.8 2.4.1 2.4 1.4zm37.4 8c-.3.5-1 .7-1.5.3-.5-.3-.7-1-.3-1.5.3-.5 1-.7 1.5-.3.5.3.7 1 .3 1.5zm17.6-.7c0 .3-.4.8-1 1.1-.5.3-1 .1-1-.4 0-.6.5-1.1 1-1.1.6 0 1 .2 1 .4zm-30.7 5.1c-.7 2.1-1.3 1.9-1.3-.6 0-1.1.4-1.8 1-1.4.5.3.7 1.2.3 2zm12.5-.6c.3.8-.1 1.2-.9.9-.7-.2-1.5-1-1.7-1.7-.3-.8.1-1.2.9-.9.7.2 1.5 1 1.7 1.7zM591.5 435.2c-.9 11.9-.9 13.7 0 23.5.5 4.6.3 8.9-.4 11.8-.8 3.1-.8 5.1-.1 6.5.7 1.3.7 2.7 0 4.5-.7 1.9-.7 4 .1 6.7.8 3.1.7 6.9-.5 16.2-2.2 16.8-2.3 29.4-.3 33.3 1.1 2 1.3 3.3.6 4-.6.6-1.2 8.8-1.5 18.9-.3 15.4-.1 18.5 1.4 22.1l1.7 4.3H632l.2-29.3.3-29.2 10.3-.3 10.2-.3.1 7.3c0 4 .2 17.2.5 29.3l.5 22h38.4l.5-15.3c.3-8.5 1-15.6 1.6-16 .5-.4 1.5-3.2 2.1-6.2.9-4.5.8-6-.4-8.4-1.2-2.4-1.4-5.2-.9-14.5.5-7.7.2-17.5-.8-29.1-.9-9.6-1.6-26.3-1.6-37.2 0-16.9-.2-19.8-1.5-19.8-.8 0-1.5-.5-1.5-1.1 0-.5.4-.8.9-.5 1.5 1 2-1.9 1.1-6-.5-2.2-.5-4.5.1-5.5.8-1.6-.4-1.8-19.1-1.9l-20-.1v62.8h-9.4c-5.1.1-9.8-.2-10.4-.6-.7-.4-1.2-8.9-1.3-24.9-.1-13.3-.6-24.2-1.1-24.2-.4 0-.8-.5-.8-1.1 0-.5.5-.7 1-.4.6.4 1-1.7 1-5.4V425h-39.7l-.8 10.2zM659 453c0 .5-.7.7-1.5.4-.8-.4-1.2-1-.9-1.5.6-1.1 2.4-.2 2.4 1.1zm24 12c0 .5-.4 1-1 1-.5 0-1-.5-1-1 0-.6.5-1 1-1 .6 0 1 .4 1 1zm-60.2 4.1c-.2.6-.8 1-1.3 1s-1.1-.4-1.3-1c-.2-.6.4-1.1 1.3-1.1s1.5.5 1.3 1.1zm63 .1c-.6 1.8-2.8 2.1-2.8.4 0-.9.7-1.6 1.6-1.6.9 0 1.4.5 1.2 1.2zM659 491c0 .5-.4 1-.9 1-.6 0-1.3-.5-1.6-1-.3-.6.1-1 .9-1 .9 0 1.6.4 1.6 1zm-1 4.2c0 1.3-2.3.5-2.8-1-.2-.7.2-1 1.2-.6.9.3 1.6 1.1 1.6 1.6zm-42.9-.2c2.3 1.3 2.5 3.6.4 4.4-1.1.4-1.9-.3-2.5-2-1.5-3.9-1.3-4.2 2.1-2.4zm63.3.9c1.4 1.6 1.5 2 .2 3-1.2 1-1.7.8-2.5-.8-2.2-4.1-.7-5.6 2.3-2.2zm-32.9.1c.3.5.1 1-.4 1-.6 0-1.1-.5-1.1-1 0-.6.2-1 .4-1 .3 0 .8.4 1.1 1zm9 3c.3.5-.1 1-1 1s-1.3-.5-1-1c.3-.6.8-1 1-1 .2 0 .7.4 1 1zm-2.5 6.8c0 1.3-1.2 2.2-2.2 1.6-1-.6-.1-2.4 1.3-2.4.5 0 .9.4.9.8zm10.4 30.9c.3.4 1.6.8 2.7 1 5.2.8 8 4.3 3.5 4.3-1.4 0-3.6.4-5 1-2.8 1-3.1.8-4.1-3.8-.5-2.4-.3-3.2.8-3.2.7 0 1.7.3 2.1.7zm25.1 4.3c.3.5-.1 1-.9 1s-1.8-.5-2.1-1c-.3-.6.1-1 .9-1s1.8.4 2.1 1zm-1.8 13.9c.1 1.4-.3 1.8-1.3 1.4-1.7-.6-1.8-2-.1-2.6l1.2-.6c.1-.1.1.8.2 1.8zM687 580c0 .5-.4 1-1 1-.5 0-1-.5-1-1 0-.6.5-1 1-1 .6 0 1 .4 1 1zm-13 3.4c0 .8-.4 1.7-.9 2.1-.6.3-.9-.4-.8-1.5.1-2.3 1.7-2.8 1.7-.6zm11.8.5c.3.8-.1 1.2-.9.9-.7-.2-1.5-1-1.7-1.7-.3-.8.1-1.2.9-.9.7.2 1.5 1 1.7 1.7zM506.8 682.1c-.6.4-1.2 3-1.4 5.9-.2 2.9-.9 8-1.5 11.3-.8 4.5-.7 8.2.1 14.4.9 6.4.9 9.5.1 12.9-.8 3.2-.9 5-.1 5.9.7.8.7 2.2-.1 4.4-.9 2.4-.9 3.9 0 5.7 1.5 3.4 1.4 7.6-.5 17.4-1.4 7.4-1.4 8.4 0 9.9 2.2 2.4 2 4.1-.4 4.1-1.8 0-2 .7-2 6.7 0 5.1.5 7.7 2 10.1 1.9 3.1 1.9 3.4.4 4.9-1.2 1.3-1.5 2.8-1.1 6.2.3 2.5.1 9.9-.4 16.3-1 11.2-1 12 1 15.2 1.2 1.8 2.1 5 2.1 7v3.7l22.4-.2c15.8-.1 22.6-.5 22.8-1.3.2-.6.3-14 .2-29.9-.1-15.8.2-29 .6-29.2.8-.5 1.4 1.7 4.6 17.9 1.1 5.8 2.5 9.7 4 11.5 2.1 2.5 2.1 2.9.8 4.3-1.4 1.4-1.4 2.4.1 10.4.9 4.9 2.1 10.6 2.6 12.6l1 3.8h15.7c11 0 16.2-.4 17-1.2.9-.9 1.2-.9 1.2 0 0 .7 1.3 1.2 3 1.2 2.5 0 3-.4 3-2.3-.1-4.2-5.5-28.4-6.7-29.9-.7-.8-1-2.3-.7-3.4.5-1.9-2.7-21.2-4.1-24.6-.5-1.2.7-3.1 3.9-6.6 2.5-2.7 4.6-5.3 4.6-5.8s1.4-2.1 3.2-3.6c2.7-2.2 3-3 1.9-3.7-1.3-.8-1.3-1.7 0-6.8 1-4.2 1.4-12.4 1.4-29.8v-24l-3.2-4.5c-1.7-2.5-6-7.3-9.6-10.8l-6.5-6.2-40.2-.3c-22.1-.1-40.6.1-41.2.4zm49 36.4l2.2 7.5 6.8.1c10.7.1 11.3.8 4.6 5.4-3.1 2.2-6.1 4.3-6.6 4.6-.6.4 0 3.6 1.2 7.8 1.2 4 2 7.5 1.6 7.8-.3.3-3-1.3-6-3.6-3-2.2-5.9-4.1-6.3-4.1-.4 0-3.5 1.8-6.8 4-3.2 2.1-6.1 3.8-6.3 3.6-.3-.3 2.2-9.9 3.5-13.3.2-.6-2.6-3.4-6.2-6.2l-6.7-5 8.3-.3 8.3-.3 2.5-7.8c1.4-4.2 2.8-7.7 3.1-7.7.3 0 1.6 3.4 2.8 7.5zM511 744c0 .5-.7 1-1.6 1-.8 0-1.2-.5-.9-1 .3-.6 1-1 1.6-1 .5 0 .9.4.9 1zm79 12c0 .5-.4 1-1 1-.5 0-1-.5-1-1 0-.6.5-1 1-1 .6 0 1 .4 1 1zm-56 15c0 .5-.4 1-1 1-.5 0-1-.5-1-1 0-.6.5-1 1-1 .6 0 1 .4 1 1zm35 1.5c0 .8-.4 1.5-1 1.5-.5 0-1-.7-1-1.5s.5-1.5 1-1.5c.6 0 1 .7 1 1.5zm-26 1.5c0 .5-.4 1-1 1-.5 0-1-.5-1-1 0-.6.5-1 1-1 .6 0 1 .4 1 1zm-2.6 7.5c-.4.8-1 1.5-1.5 1.5s-.9-.7-.9-1.5.7-1.5 1.5-1.5c.9 0 1.2.6.9 1.5zM567 787c0 .5-.4 1-1 1-.5 0-1-.5-1-1 0-.6.5-1 1-1 .6 0 1 .4 1 1zm24.7 13.2c-.3.7-.5.2-.5-1.2s.2-1.9.5-1.3c.2.7.2 1.9 0 2.5zm-29.3.1c1.2 1.9.3 3.2-1.9 2.4-1.7-.7-2.1-5.1-.3-4.5.6.2 1.6 1.2 2.2 2.1zm-42.6 11.4c.6 1.9-2.5 1.6-3.2-.3-.4-1.1-.1-1.4 1.1-1.2.9.2 1.8.9 2.1 1.5zM576 816c0 .5-.6 1-1.4 1-.8 0-1.8-.5-2.1-1-.3-.6.3-1 1.4-1 1.2 0 2.1.4 2.1 1zm-53 8c0 .5-.4 1-1 1-.5 0-1-.5-1-1 0-.6.5-1 1-1 .6 0 1 .4 1 1zm73.8.1c-.2.6-.8 1-1.3 1s-1.1-.4-1.3-1c-.2-.6.4-1.1 1.3-1.1s1.5.5 1.3 1.1zm-3.8 1.3c0 .3-.4.8-1 1.1-.5.3-1 .1-1-.4 0-.6.5-1.1 1-1.1.6 0 1 .2 1 .4zm-18.6 4.1c-.4.8-1.4 1.5-2.3 1.5-1.4-.1-1.3-.3.3-1.5 2.5-1.9 2.7-1.9 2 0zm6.6-.5c0 .5-.4 1-1 1-.5 0-1-.5-1-1 0-.6.5-1 1-1 .6 0 1 .4 1 1zm19-.6c0 .3-.4.8-1 1.1-.5.3-1 .1-1-.4 0-.6.5-1.1 1-1.1.6 0 1 .2 1 .4zm-9 2.6c0 .5-.5 1-1.1 1-.5 0-.7-.5-.4-1 .3-.6.8-1 1.1-1 .2 0 .4.4.4 1zm-51.9 2.3c-1.3 1.3-2.6.3-1.6-1.2.3-.6 1.1-.8 1.7-.5.6.4.6 1-.1 1.7zm-22.3 2.4c.6 1.9-2.5 1.6-3.2-.3-.4-1.1-.1-1.4 1.1-1.2.9.2 1.8.9 2.1 1.5zm27 2.5c-.2.6-1 1.4-1.6 1.6-.7.2-1-.2-.6-1.2.7-1.8 2.8-2.2 2.2-.4z"/><path d="M551.5 724c-1 4.4-3.1 6-7.7 6h-4.1l2.9 2.2c1.6 1.2 3.2 2.7 3.7 3.3.8 1 .4 4.6-.9 7.8-.6 1.7-.4 1.7 2.7-.2 4.3-2.6 6.4-2.6 9.6-.1 1.5 1.1 2.7 1.9 2.9 1.8.1-.2-.3-2.3-.9-4.6-1.1-4.3-1.1-4.3 2.7-7.5l3.8-3.3-4.7-.1c-5.1-.2-6.2-1-7.2-5.6-.7-3.6-2-3.4-2.8.3zM264.7 680.1c-1.2.7-6.8 1-14.5.8-17-.4-19.1-.3-23 .7l-3.4.9.1 21.5c0 11.8 0 21.8.1 22.2 0 .5 5.9.8 13 .8 14.3 0 14.4.1 12 6.6-.7 1.9-.7 3 .1 4 .8 1 .8 2.2 0 4.5-.7 2.1-.7 3.7-.1 4.9.6 1 1 4.1 1 6.9 0 3.3.4 5.1 1.2 5.1.7 0 .5.5-.4 1.2-2.7 2.1-6 27.5-4.2 32.2.3.9 1 1.4 1.4 1.1.5-.3 1.2 0 1.6.6.4.8.3.9-.4.5-1.5-.9-1.5-.1 0 2.4 1 1.5 1 2.2 0 3.2-.7.7-1.2 4.3-1.3 9.3 0 4.4-.4 11.6-.9 16-.8 7.5-.7 8.3 1.8 13.2l2.6 5.3h21.8c18.7 0 21.8-.2 21.8-1.5.1-.8.1-7.4.1-14.6 0-13 .4-16.3 1.9-15.4.4.2 1-2.3 1.4-5.6.4-4.6.2-6.6-.9-8.2-1.6-2.3-2.1-14.6-.7-16.2.5-.6.5-5.7.1-11.5-.5-5.8-1-17.9-1.1-27l-.3-16.5 13-.3c8.5-.2 13.2-.7 13.6-1.4.9-1.5 1.2-39.9.3-42.1-.3-1-1.7-1.7-3.2-1.7-1.4 0-3.4-.8-4.4-1.7-1.5-1.3-2.1-1.4-2.7-.5-.6 1-1.5 1-3.6.2-2.2-.8-3.5-.7-5.9.4-2.7 1.2-4.5 1.2-13.1 0-12.1-1.6-22.3-1.7-24.8-.3zM233 716c0 .5-.4 1-1 1-.5 0-1-.5-1-1 0-.6.5-1 1-1 .6 0 1 .4 1 1zm-1.1 5.1c-.8.5-1.6.3-2.1-.4-1.4-2.2-.8-2.8 1.3-1.6 1.7.9 1.9 1.3.8 2zM229 724c0 .5-.7 1-1.5 1s-1.5-.5-1.5-1c0-.6.7-1 1.5-1s1.5.4 1.5 1zm51 37.4c0 .3-.4.8-1 1.1-.5.3-1 .1-1-.4 0-.6.5-1.1 1-1.1.6 0 1 .2 1 .4zm-18.5 4.6c.3.5-.1 1-.9 1s-1.8-.5-2.1-1c-.3-.6.1-1 .9-1s1.8.4 2.1 1zm17.5.4c0 .3-.4.8-1 1.1-.5.3-1 .1-1-.4 0-.6.5-1.1 1-1.1.6 0 1 .2 1 .4zm-.5 9.6c-.3.5-1.1 1-1.6 1-.6 0-.7-.5-.4-1 .3-.6 1.1-1 1.6-1 .6 0 .7.4.4 1zm-18.2 2.6c-.7.3-.9 1.2-.6 2 .4 1 0 1.2-1.1.8-2.7-1-1.4-3.2 1.9-3.2.6 0 .5.2-.2.4zM277 781c0 .5-.4 1-1 1-.5 0-1-.5-1-1 0-.6.5-1 1-1 .6 0 1 .4 1 1zm-16 24c0 .5-.4 1-1 1-.5 0-1-.5-1-1 0-.6.5-1 1-1 .6 0 1 .4 1 1zm-.6 3.6c.4 1.1.1 1.4-1.1 1.2-.9-.2-1.8-.9-2.1-1.6-.6-1.8 2.5-1.5 3.2.4zm-3.7 5c-.9.9-2.8-.6-2.1-1.8.4-.6 1-.6 1.7.1.6.6.8 1.3.4 1.7zm2.3 5.4c0 .5-.4 1-1 1-.5 0-1-.5-1-1 0-.6.5-1 1-1 .6 0 1 .4 1 1zm-5 1c0 .5-.4 1-1 1-.5 0-1-.5-1-1 0-.6.5-1 1-1 .6 0 1 .4 1 1zm4.8 2.7c.6 1.9-2.5 1.6-3.2-.3-.4-1.1-.1-1.4 1.1-1.2.9.2 1.8.9 2.1 1.5zm-3.3 4.3c-.3.5-1 1-1.6 1-.5 0-.9-.5-.9-1 0-.6.7-1 1.6-1 .8 0 1.2.4.9 1zm-3.5 7.6c0 .8-.4 1.2-1 .9-.5-.3-1-1-1-1.6 0-.5.5-.9 1-.9.6 0 1 .7 1 1.6zM368.1 686.2c-3.4 4.2-3.9 5.5-5 14.6-1 7.3-1 10.5-.2 12 1.5 2.8 1.4 14.4-.1 17.7-.9 2-.9 3.1 0 4.5.8 1.4.9 2.7 0 5-.8 2.3-.7 3.8.1 5.6 1.5 3.4 1.4 6.4-.9 19.9-2.6 15.1-2.6 22.4 0 27.5 1.2 2.4 1.6 4.1 1 4.5-.6.3-1 3.5-1 7 0 3.4-.5 10.9-1 16.5-1.2 11.5-1.2 11.6 6 18.8l4.3 4.2 30.8-.1c18.4 0 30.9-.4 30.9-1 0-.5.7-.9 1.5-.9s1.5.4 1.5 1 3.6 1 8.8 1h8.8l5.2-5.3 5.2-5.3v-9.1c0-10.5.8-16.1 2.1-14.1.6.9.9.2.9-1.9 0-1.7.4-4.3.9-5.6.7-1.9.5-3.5-1-6.3-2.2-4.3-2.4-8.5-.8-14.8.8-3.3.7-8.4-.5-21-1-10.2-1.6-26.7-1.6-42.4v-25.8l-5.4-5.3-5.5-5.4-40.6-.1-40.7-.1-3.7 4.7zm23.2 3.5c1.5.9.6 2.1-2 2.7-2.6.7-4.3-.5-4.3-3.2 0-1.1 3.9-.8 6.3.5zm40.7-.7c0 .5-.4 1-1 1-.5 0-1-.5-1-1 0-.6.5-1 1-1 .6 0 1 .4 1 1zm-18.2 4.9c.3.8-.1 1.2-.9.9-.7-.2-1.5-1-1.7-1.7-.3-.8.1-1.2.9-.9.7.2 1.5 1 1.7 1.7zm8.2 68.6V803h-16v-81h16v40.5zm38 15.5c0 .5-.4 1-1 1-.5 0-1-.5-1-1 0-.6.5-1 1-1 .6 0 1 .4 1 1zm-34 3.4c0 .3-.4.8-1 1.1-.5.3-1 .1-1-.4 0-.6.5-1.1 1-1.1.6 0 1 .2 1 .4zm15.5.6c.3.5-.1 1-.9 1-.9 0-1.6-.5-1.6-1 0-.6.4-1 .9-1 .6 0 1.3.4 1.6 1zm17.5.4c0 .3-.4.8-1 1.1-.5.3-1 .1-1-.4 0-.6.5-1.1 1-1.1.6 0 1 .2 1 .4zm-13 3.6c0 .5-.5 1-1.1 1-.5 0-.7-.5-.4-1 .3-.6.8-1 1.1-1 .2 0 .4.4.4 1zm-15.5 3c.3.5.1 1-.4 1-.6 0-1.1-.5-1.1-1 0-.6.2-1 .4-1 .3 0 .8.4 1.1 1zm28.5 2.4c0 .3-.4.8-1 1.1-.5.3-1 .1-1-.4 0-.6.5-1.1 1-1.1.6 0 1 .2 1 .4zm-19.5 4.6c.3.5-.1 1-.9 1-.9 0-1.6-.5-1.6-1 0-.6.4-1 .9-1 .6 0 1.3.4 1.6 1zM404 813.1c0 .5-.7.9-1.5.9-1.5 0-2-1.2-.9-2.3.8-.8 2.4.1 2.4 1.4zm37 8c0 .6-.4.7-1 .4-.5-.3-1-1.1-1-1.6 0-.6.5-.7 1-.4.6.3 1 1.1 1 1.6zm-6.7 15.5c-.4 1-.9 1.2-1.5.6-1.2-1.2-.1-3.5 1.2-2.7.5.3.6 1.3.3 2.1zm4.7-1.6c0 .5-.2 1-.4 1-.3 0-.8-.5-1.1-1-.3-.6-.1-1 .4-1 .6 0 1.1.4 1.1 1zm-.2 3.9c.3.8-.1 1.2-.9.9-.7-.2-1.5-1-1.7-1.7-.3-.8.1-1.2.9-.9.7.2 1.5 1 1.7 1.7z"/><path d="M409 762.5V800h10v-75h-10v37.5zM88 683.5c0 .8-1.1 5.4-2.5 10.1-1.4 4.7-2.5 10.1-2.5 11.9 0 1.8 1.1 4.8 2.5 6.9 1.4 2 2.5 4.8 2.5 6.1 0 1.3-1.1 4.1-2.5 6.1-2.7 3.9-3.1 6.4-1.5 8 .7.7.7 2.1-.1 4.3-1 2.7-.9 3.9.5 6.7 1.5 3.2 1.5 4.2.1 12.1-1.6 9.2-.9 16.9 2 24l1.4 3.3H142v16l-26.7.2-26.8.3-2.8 17.4c-1.5 9.6-2.5 18.1-2.2 18.9.3.7 1.4 1.6 2.5 1.9 1.3.3 2 1.4 2 2.9 0 2.4 0 2.4 11.8 2.4 6.4 0 28.6.3 49.2.6l37.5.7 1.3-3.2c1-2.3 1.2-5.7.8-12.4-.3-5.1-.9-26.4-1.2-47.5-.4-27.6-.9-38.2-1.8-38.2-.6 0-12.6-.1-26.6-.3l-25.5-.2-.3-7.6c-.3-7.5-.2-7.7 2.3-8.3 1.4-.4 13.5-.6 26.8-.6l24.2.1.3-21.4.2-21.4-20.2-.6c-11.2-.4-33.5-.7-49.5-.7-25.3 0-29.3.2-29.3 1.5zM98.9 701c4.2 1.1 5.7 4 2.1 4-1 0-3.1.5-4.5 1.2-3 1.4-3.1 1.3-4.1-3.6-.6-3.3-.4-3.8.9-3.3.9.3 3.4 1.1 5.6 1.7zm40.1-1.6c0 .3-.4.8-1 1.1-.5.3-1 .1-1-.4 0-.6.5-1.1 1-1.1.6 0 1 .2 1 .4zm-18.7 4.2c1.1 1.1-.3 2.4-1.8 1.8-.8-.4-1.2-1-.9-1.5.6-1.1 1.8-1.2 2.7-.3zM108.5 732c.3.5.1 1-.4 1-.6 0-1.1-.5-1.1-1 0-.6.2-1 .4-1 .3 0 .8.4 1.1 1zm11.5 10.4c0 .3-.4.8-1 1.1-.5.3-1 .1-1-.4 0-.6.5-1.1 1-1.1.6 0 1 .2 1 .4zm-1.2 4.5c.3.8-.1 1.2-.9.9-.7-.2-1.5-1-1.7-1.7-.3-.8.1-1.2.9-.9.7.2 1.5 1 1.7 1.7zM116 751c0 .5-.7 1-1.5 1s-1.5-.5-1.5-1c0-.6.7-1 1.5-1s1.5.4 1.5 1zm-3.2 7.1c-.2.6-.8 1-1.3 1s-1.1-.4-1.3-1c-.2-.6.4-1.1 1.3-1.1s1.5.5 1.3 1.1zM148 793c0 .5-.4 1-.9 1-.6 0-1.3-.5-1.6-1-.3-.6.1-1 .9-1 .9 0 1.6.4 1.6 1zm17 9.4c0 .3-.4.8-1 1.1-.5.3-1 .1-1-.4 0-.6.5-1.1 1-1.1.6 0 1 .2 1 .4zm-18.5 4.6c.3.5-.1 1-.9 1-.9 0-1.6-.5-1.6-1 0-.6.4-1 .9-1 .6 0 1.3.4 1.6 1zm-34.5 2.5c0 .8-.7 1.5-1.5 1.5-1.6 0-2-1.2-.8-2.3 1.1-1.2 2.3-.8 2.3.8zm-2 14c0 .8-.4 1.5-1 1.5-.5 0-1-.7-1-1.5s.5-1.5 1-1.5c.6 0 1 .7 1 1.5zm37.5 7.5c.3.5.1 1-.4 1-.6 0-1.1-.5-1.1-1 0-.6.2-1 .4-1 .3 0 .8.4 1.1 1zm-.7 5.6c-1 1-2.8-.6-2.8-2.4 0-1.5.1-1.5 1.7.1.9.9 1.4 1.9 1.1 2.3zm-11.8-1.1c0 .8-.4 1.5-1 1.5-.5 0-1-.7-1-1.5s.5-1.5 1-1.5c.6 0 1 .7 1 1.5zm-30 1c.9 1.1 1 1.9.2 2.7-1.3 1.3-2.8.4-3.5-2.2-.6-2.4 1.5-2.7 3.3-.5zm39 2.3c0 1.3-1.2 2.2-2.2 1.6-1-.6-.1-2.4 1.3-2.4.5 0 .9.4.9.8zM645.9 682.3c0 .1-.3 18.6-.5 41.2-.2 22.5-.9 43.4-1.4 46.4-1.6 9-1.2 19.2.9 23.6 1.7 3.5 1.7 4.1.4 6.2-1 1.5-1.2 3.3-.8 5.3.4 1.8.1 8.5-.5 15-1.1 9.9-1.1 12.4.1 15.2.8 1.8 1.4 4.1 1.5 5 .1 1 .2 2.2.3 2.8.1.6 8.2 1 22.1 1h22v-16.4c0-13.6.3-16.5 1.5-17 .8-.3 1.5-1.7 1.5-3 0-1.4.5-3.6 1.1-5 1-2.1.8-2.9-1-5.2-2-2.6-2.2-3.8-2-17.3.1-8-.2-33.4-.6-56.4l-.7-41.8-21.9.1c-12.1.1-21.9.2-22 .3zm4.4 3.3c.3.3.3 1.3 0 2.1-.5 1.2-.7 1.2-1.4.1-1.5-2.3-.4-4 1.4-2.2zM653 705c0 .5-.5 1-1.1 1-.5 0-.7-.5-.4-1 .3-.6.8-1 1.1-1 .2 0 .4.4.4 1zm-4 78.4c0 .3-.4.8-1 1.1-.5.3-1 .1-1-.4 0-.6.5-1.1 1-1.1.6 0 1 .2 1 .4zm33 10c0 .3-.4.8-1 1.1-.5.3-1 .1-1-.4 0-.6.5-1.1 1-1.1.6 0 1 .2 1 .4zm-19.2 5.4c.2.7-.2 1-1.2.6-.9-.3-1.6-1.1-1.6-1.6 0-1.3 2.3-.5 2.8 1zm-1.1 12.7c0 .9-.9 1.5-2.1 1.5-2.1-.1-2.1-.1-.2-1.5 2.4-1.8 2.3-1.8 2.3 0zm.3 25.5c0 .5-.2 1-.4 1-.3 0-.8-.5-1.1-1-.3-.6-.1-1 .4-1 .6 0 1.1.4 1.1 1zm17.5 0c.3.5.1 1-.4 1-.6 0-1.1-.5-1.1-1 0-.6.2-1 .4-1 .3 0 .8.4 1.1 1zm-30.3 5.2c-.9.9-1.2.7-1.2-1.2s.3-2.1 1.2-1.2c.9.9.9 1.5 0 2.4zm12.6-1.3c.3.8-.1 1.2-.9.9-.7-.2-1.5-1-1.7-1.7-.3-.8.1-1.2.9-.9.7.2 1.5 1 1.7 1.7zM732.9 682.6c0 .5-.2 3.1-.4 5.9-.2 2.7-1 8.1-1.9 11.8-2 8.6-2 11 0 14.9 2.6 5 2.7 8.3.3 13.9-1.8 4.1-2 5.5-1.1 6.9.8 1.4.9 2.7 0 5.1-.8 2.4-.8 3.7.1 5 1.5 2.6 1.4 6.4-.9 21.3-2.6 16.6-2.6 22.1.1 27 1.9 3.6 1.9 3.9.3 5.7-1.3 1.4-1.5 2.9-1.1 6.3.4 2.5.2 9.5-.4 15.5-.9 9.9-.8 11.3.8 14.2 1 1.7 2.4 4.2 3.1 5.5l1.3 2.4h49l48.9-.1V799l-26 .1c-14.3 0-26.4-.2-27-.6-.5-.3-1-1.5-1-2.6 0-1-.4-1.9-.9-1.9s-1.4-1.4-2-3.1c-.9-2.7-.8-3.2.9-3.6 1.6-.4 2-1.4 2-5.3 0-3.1.5-5 1.3-5.3.8-.3 11.7-.6 24.3-.6 12.6 0 23.2-.1 23.7-.1.4 0 .6-6.8.5-15l-.3-15.1h-22c-12.1 0-23.2-.3-24.7-.6l-2.8-.5V727h54v-44h-30.8c-17 0-39.1-.3-49-.7-10.7-.3-18.2-.2-18.3.3zm15.9 16.3c.9.6 2.9 1.2 4.5 1.6 1.5.3 2.7 1.2 2.7 1.9 0 .8-1.2 1.7-2.7 2-1.6.4-3.5.9-4.3 1.1-1 .3-2-.6-2.7-2.6-1.7-4.4-.8-5.7 2.5-4zm43.2.1c0 .5-.5 1-1.1 1-.5 0-.7-.5-.4-1 .3-.6.8-1 1.1-1 .2 0 .4.4.4 1zm13 2.1c0 1.8-.2 1.9-1.5.9-.8-.7-1.5-1.6-1.5-2.1s.7-.9 1.5-.9c.9 0 1.5.9 1.5 2.1zm-31.2 2.8c.3.8-.1 1.2-.9.9-.7-.2-1.5-1-1.7-1.7-.3-.8.1-1.2.9-.9.7.2 1.5 1 1.7 1.7zM737.5 720c-.3.5-1 1-1.6 1-.5 0-.9-.5-.9-1 0-.6.7-1 1.6-1 .8 0 1.2.4.9 1zm35.5 22c0 .5-.4 1-1 1-.5 0-1-.5-1-1 0-.6.5-1 1-1 .6 0 1 .4 1 1zm-1.6 2.6c2 .8 2.1 2.4.2 2.4-.8 0-1.6-.7-2-1.5-.6-1.7-.4-1.8 1.8-.9zM769 750c0 .5-.4 1-1 1-.5 0-1-.5-1-1 0-.6.5-1 1-1 .6 0 1 .4 1 1zm-2.6 7.5c-.4.8-1 1.5-1.5 1.5s-.9-.7-.9-1.5.7-1.5 1.5-1.5c.9 0 1.2.6.9 1.5zm34 47.9c-.7 1.8-2 2.1-2.9.6-.3-.6.1-1 .9-1 .9 0 1.6-.5 1.6-1.2 0-.6.2-.9.5-.6.3.3.3 1.3-.1 2.2zm-35.2 3.1c0 .5-.5 1.1-1.1 1.3-.6.2-1.1-.4-1.1-1.3s.5-1.5 1.1-1.3c.6.2 1.1.8 1.1 1.3zm-1.4 13.7c-.6 1.8-2.8 2.1-2.8.4 0-.9.7-1.6 1.6-1.6.9 0 1.4.5 1.2 1.2zM801 830c0 .5-.4 1-1 1-.5 0-1-.5-1-1 0-.6.5-1 1-1 .6 0 1 .4 1 1zm-12.7 3.5c.4.8.2 1.7-.3 2-.6.4-1-.3-1-1.4 0-2.5.6-2.7 1.3-.6zm11.1-.9c1.7.7 2.2 3.4.6 3.4-.5 0-1.4-.9-2-2-1.2-2.2-1-2.3 1.4-1.4zm-41.4 1.9c.7.8.9 2.2.6 3.1-.5 1.3-.9 1.4-2.1.4-1.6-1.3-2.1-5-.6-5 .5 0 1.4.7 2.1 1.5zm39.4 3.4c.3.5-.1 1.1-.9 1.5-.9.3-1.5 0-1.5-.9 0-1.6 1.6-2 2.4-.6zM872 683.5c0 .8-1.1 5.4-2.5 10.1-1.4 4.7-2.5 10.1-2.5 11.9 0 1.8 1.1 4.8 2.5 6.9 1.4 2 2.5 4.8 2.5 6.1 0 1.3-1.1 4.1-2.5 6.1-2.7 3.9-3.1 6.4-1.5 8 .7.7.7 2.1-.1 4.3-1 2.7-.9 3.9.5 6.7 1.5 3.2 1.5 4.2.1 12.1-1.6 9.2-.9 16.9 2 24l1.4 3.3H926v16l-26.7.2-26.8.3-2.8 17.4c-1.5 9.6-2.5 18.1-2.2 18.9.3.7 1.4 1.6 2.5 1.9 1.3.3 2 1.4 2 2.9 0 2.4 0 2.4 11.8 2.4 6.4 0 28.6.3 49.2.6l37.5.7 1.3-3.2c1-2.3 1.2-5.7.8-12.4-.3-5.1-.9-26.4-1.2-47.5-.4-27.6-.9-38.2-1.8-38.2-.6 0-12.6-.1-26.6-.3l-25.5-.2-.3-7.6c-.3-7.5-.2-7.7 2.3-8.3 1.4-.4 13.5-.6 26.8-.6l24.2.1.3-21.4.2-21.4-20.2-.6c-11.2-.4-33.5-.7-49.5-.7-25.3 0-29.3.2-29.3 1.5zm10.9 17.5c4.2 1.1 5.7 4 2.1 4-1 0-3.1.5-4.5 1.2-3 1.4-3.1 1.3-4.1-3.6-.6-3.3-.4-3.8.9-3.3.9.3 3.4 1.1 5.6 1.7zm40.1-1.6c0 .3-.4.8-1 1.1-.5.3-1 .1-1-.4 0-.6.5-1.1 1-1.1.6 0 1 .2 1 .4zm-18.7 4.2c1.1 1.1-.3 2.4-1.8 1.8-.8-.4-1.2-1-.9-1.5.6-1.1 1.8-1.2 2.7-.3zM892.5 732c.3.5.1 1-.4 1-.6 0-1.1-.5-1.1-1 0-.6.2-1 .4-1 .3 0 .8.4 1.1 1zm11.5 10.4c0 .3-.4.8-1 1.1-.5.3-1 .1-1-.4 0-.6.5-1.1 1-1.1.6 0 1 .2 1 .4zm-1.2 4.5c.3.8-.1 1.2-.9.9-.7-.2-1.5-1-1.7-1.7-.3-.8.1-1.2.9-.9.7.2 1.5 1 1.7 1.7zM900 751c0 .5-.7 1-1.5 1s-1.5-.5-1.5-1c0-.6.7-1 1.5-1s1.5.4 1.5 1zm-3.2 7.1c-.2.6-.8 1-1.3 1s-1.1-.4-1.3-1c-.2-.6.4-1.1 1.3-1.1s1.5.5 1.3 1.1zM932 793c0 .5-.4 1-.9 1-.6 0-1.3-.5-1.6-1-.3-.6.1-1 .9-1 .9 0 1.6.4 1.6 1zm17 9.4c0 .3-.4.8-1 1.1-.5.3-1 .1-1-.4 0-.6.5-1.1 1-1.1.6 0 1 .2 1 .4zm-18.5 4.6c.3.5-.1 1-.9 1-.9 0-1.6-.5-1.6-1 0-.6.4-1 .9-1 .6 0 1.3.4 1.6 1zm-34.5 2.5c0 .8-.7 1.5-1.5 1.5-1.6 0-2-1.2-.8-2.3 1.1-1.2 2.3-.8 2.3.8zm-2 14c0 .8-.4 1.5-1 1.5-.5 0-1-.7-1-1.5s.5-1.5 1-1.5c.6 0 1 .7 1 1.5zm37.5 7.5c.3.5.1 1-.4 1-.6 0-1.1-.5-1.1-1 0-.6.2-1 .4-1 .3 0 .8.4 1.1 1zm-.7 5.6c-1 1-2.8-.6-2.8-2.4 0-1.5.1-1.5 1.7.1.9.9 1.4 1.9 1.1 2.3zm-11.8-1.1c0 .8-.4 1.5-1 1.5-.5 0-1-.7-1-1.5s.5-1.5 1-1.5c.6 0 1 .7 1 1.5zm-30 1c.9 1.1 1 1.9.2 2.7-1.3 1.3-2.8.4-3.5-2.2-.6-2.4 1.5-2.7 3.3-.5zm39 2.3c0 1.3-1.2 2.2-2.2 1.6-1-.6-.1-2.4 1.3-2.4.5 0 .9.4.9.8z"/></svg>